<svg width="730.75625px" height="108.8px" xmlns="http://www.w3.org/2000/svg" viewBox="-115.37812500000001 20.6 730.75625 108.8" style="background: rgba(0, 0, 0, 0);" preserveAspectRatio="xMidYMid"><defs><linearGradient id="editing-gradient-gradient" x1="0" x2="1" y1="0.5" y2="0.5" gradientUnits="objectBoundingBox"><stop offset="0" stop-color="#f0f"></stop><stop offset="1" stop-color="#0ff"></stop></linearGradient></defs><g><g transform="translate(-12.30001163482666, 93.05500411987305)"><path d="M18.23-33.71L18.23-33.71Q35.92-33.71 35.92-16.86L35.92-16.86L35.92-16.86Q35.92 0 18.23 0L18.23 0L3.63 0L3.63-33.71L18.23-33.71ZM14.46-25.63L14.46-8.09L18.03-8.09L18.03-8.09Q24.84-8.09 24.84-15.39L24.84-15.39L24.84-18.33L24.84-18.33Q24.84-25.63 18.03-25.63L18.03-25.63L14.46-25.63ZM75.31 0L65.86 0L51.70-16.37L51.70 0L41.75 0L41.75-33.71L51.20-33.71L65.37-17.10L65.37-33.71L75.31-33.71L75.31 0ZM114.56-23.37L114.56-23.37Q114.56-20.29 112.90-17.79L112.90-17.79L112.90-17.79Q111.23-15.29 108.04-14.11L108.04-14.11L115.54 0L103.39 0L97.41-12.30L93.39-12.30L93.39 0L82.56 0L82.56-33.71L103.19-33.71L103.19-33.71Q106.82-33.71 109.39-32.32L109.39-32.32L109.39-32.32Q111.97-30.92 113.26-28.54L113.26-28.54L113.26-28.54Q114.56-26.17 114.56-23.37L114.56-23.37ZM103.54-22.93L103.54-22.93Q103.54-24.26 102.66-25.14L102.66-25.14L102.66-25.14Q101.77-26.02 100.50-26.02L100.50-26.02L93.39-26.02L93.39-19.80L100.50-19.80L100.50-19.80Q101.77-19.80 102.66-20.70L102.66-20.70L102.66-20.70Q103.54-21.61 103.54-22.93L103.54-22.93ZM153.08-34.30L153.08-34.30Q160.57-34.30 164.93-30.55L164.93-30.55L164.93-30.55Q169.29-26.80 169.29-19.85L169.29-19.85L158.96-19.85L158.96-19.85Q158.96-22.79 157.41-24.50L157.41-24.50L157.41-24.50Q155.87-26.21 153.03-26.21L153.03-26.21L153.03-26.21Q149.74-26.21 148.20-24.16L148.20-24.16L148.20-24.16Q146.66-22.10 146.66-18.42L146.66-18.42L146.66-15.29L146.66-15.29Q146.66-11.66 148.20-9.58L148.20-9.58L148.20-9.58Q149.74-7.50 152.93-7.50L152.93-7.50L152.93-7.50Q156.06-7.50 157.68-9.11L157.68-9.11L157.68-9.11Q159.30-10.73 159.30-13.67L159.30-13.67L169.29-13.67L169.29-13.67Q169.29-6.76 165.06-3.09L165.06-3.09L165.06-3.09Q160.82 0.59 153.08 0.59L153.08 0.59L153.08 0.59Q144.45 0.59 140.02-3.82L140.02-3.82L140.02-3.82Q135.58-8.23 135.58-16.86L135.58-16.86L135.58-16.86Q135.58-25.48 140.02-29.89L140.02-29.89L140.02-29.89Q144.45-34.30 153.08-34.30L153.08-34.30ZM201.19 0L193.21 0L192.57-3.92L192.57-3.92Q191.05-1.81 188.58-0.61L188.58-0.61L188.58-0.61Q186.10 0.59 183.36 0.59L183.36 0.59L183.36 0.59Q178.85 0.59 176.60-1.91L176.60-1.91L176.60-1.91Q174.34-4.41 174.34-9.11L174.34-9.11L174.34-25.87L184.09-25.87L184.09-10.29L184.09-10.29Q184.09-8.62 184.95-7.62L184.95-7.62L184.95-7.62Q185.81-6.62 187.38-6.62L187.38-6.62L187.38-6.62Q189.19-6.62 190.32-7.79L190.32-7.79L190.32-7.79Q191.44-8.97 191.44-10.68L191.44-10.68L191.44-25.87L201.19-25.87L201.19 0ZM219.42-26.46L219.42-26.46Q224.62-26.46 228.22-24.43L228.22-24.43L228.22-24.43Q231.82-22.39 231.82-18.13L231.82-18.13L222.75-18.13L222.75-18.13Q222.75-19.55 221.48-20.14L221.48-20.14L221.48-20.14Q220.60-20.63 219.28-20.63L219.28-20.63L219.28-20.63Q215.75-20.63 215.75-18.96L215.75-18.96L215.75-18.96Q215.75-18.03 216.97-17.64L216.97-17.64L216.97-17.64Q218.20-17.25 220.99-16.81L220.99-16.81L220.99-16.81Q224.42-16.32 226.72-15.66L226.72-15.66L226.72-15.66Q229.03-14.99 230.74-13.30L230.74-13.30L230.74-13.30Q232.46-11.61 232.46-8.58L232.46-8.58L232.46-8.58Q232.46-3.63 228.76-1.52L228.76-1.52L228.76-1.52Q225.06 0.59 219.08 0.59L219.08 0.59L219.08 0.59Q215.65 0.59 212.61-0.37L212.61-0.37L212.61-0.37Q209.57-1.32 207.66-3.33L207.66-3.33L207.66-3.33Q205.75-5.34 205.75-8.43L205.75-8.43L214.82-8.43L214.82-8.23L214.82-8.23Q214.86-6.57 216.21-5.90L216.21-5.90L216.21-5.90Q217.56-5.24 219.08-5.24L219.08-5.24L219.08-5.24Q223.15-5.24 223.15-7.15L223.15-7.15L223.15-7.15Q223.15-8.13 221.87-8.58L221.87-8.58L221.87-8.58Q220.60-9.02 217.71-9.51L217.71-9.51L217.71-9.51Q214.23-10.09 212.00-10.78L212.00-10.78L212.00-10.78Q209.77-11.47 208.10-13.11L208.10-13.11L208.10-13.11Q206.44-14.75 206.44-17.69L206.44-17.69L206.44-17.69Q206.44-22.44 210.04-24.45L210.04-24.45L210.04-24.45Q213.64-26.46 219.42-26.46L219.42-26.46ZM248.82-25.87L254.31-25.87L254.31-19.26L248.82-19.26L248.82-9.41L248.82-9.41Q248.82-7.64 249.41-6.84L249.41-6.84L249.41-6.84Q250.00-6.03 251.57-6.03L251.57-6.03L254.31-6.03L254.31-0.29L254.31-0.29Q253.13 0.10 251.27 0.34L251.27 0.34L251.27 0.34Q249.41 0.59 248.04 0.59L248.04 0.59L248.04 0.59Q243.73 0.59 241.40-0.98L241.40-0.98L241.40-0.98Q239.07-2.55 239.07-6.32L239.07-6.32L239.07-19.26L235.44-19.26L235.44-25.87L239.46-25.87L241.57-33.71L248.82-33.71L248.82-25.87ZM272.19-26.46L272.19-26.46Q279.01-26.46 282.90-23.01L282.90-23.01L282.90-23.01Q286.80-19.55 286.80-12.94L286.80-12.94L286.80-12.94Q286.80-6.32 282.90-2.87L282.90-2.87L282.90-2.87Q279.01 0.59 272.19 0.59L272.19 0.59L272.19 0.59Q265.38 0.59 261.51-2.84L261.51-2.84L261.51-2.84Q257.64-6.27 257.64-12.94L257.64-12.94L257.64-12.94Q257.64-19.60 261.51-23.03L261.51-23.03L261.51-23.03Q265.38-26.46 272.19-26.46L272.19-26.46ZM272.19-19.85L272.19-19.85Q267.39-19.85 267.39-14.31L267.39-14.31L267.39-11.52L267.39-11.52Q267.39-6.03 272.19-6.03L272.19-6.03L272.19-6.03Q277.05-6.03 277.05-11.52L277.05-11.52L277.05-14.31L277.05-14.31Q277.05-19.85 272.19-19.85L272.19-19.85ZM325.85-26.46L325.85-26.46Q330.26-26.46 332.46-23.94L332.46-23.94L332.46-23.94Q334.67-21.41 334.67-16.76L334.67-16.76L334.67 0L324.92 0L324.92-15.58L324.92-15.58Q324.92-17.25 324.11-18.25L324.11-18.25L324.11-18.25Q323.30-19.26 321.83-19.26L321.83-19.26L321.83-19.26Q320.12-19.26 319.04-18.08L319.04-18.08L319.04-18.08Q317.96-16.91 317.96-15.19L317.96-15.19L317.96 0L308.21 0L308.21-15.58L308.21-15.58Q308.21-17.25 307.40-18.25L307.40-18.25L307.40-18.25Q306.59-19.26 305.12-19.26L305.12-19.26L305.12-19.26Q303.41-19.26 302.33-18.08L302.33-18.08L302.33-18.08Q301.25-16.91 301.25-15.19L301.25-15.19L301.25 0L291.50 0L291.50-25.87L299.49-25.87L300.13-22.00L300.13-22.00Q301.59-24.06 304.02-25.26L304.02-25.26L304.02-25.26Q306.45-26.46 309.14-26.46L309.14-26.46L309.14-26.46Q314.97-26.46 316.98-22.00L316.98-22.00L316.98-22.00Q318.50-24.06 320.88-25.26L320.88-25.26L320.88-25.26Q323.25-26.46 325.85-26.46L325.85-26.46ZM353.88-26.46L353.88-26.46Q360.98-26.46 364.73-23.13L364.73-23.13L364.73-23.13Q368.48-19.80 368.48-12.94L368.48-12.94L368.48-11.27L349.08-11.27L349.08-11.27Q349.08-8.48 350.33-7.06L350.33-7.06L350.33-7.06Q351.57-5.63 354.27-5.63L354.27-5.63L354.27-5.63Q356.72-5.63 357.87-6.66L357.87-6.66L357.87-6.66Q359.02-7.69 359.02-9.41L359.02-9.41L368.48-9.41L368.48-9.41Q368.48-4.70 364.90-2.06L364.90-2.06L364.90-2.06Q361.33 0.59 354.47 0.59L354.47 0.59L354.47 0.59Q347.26 0.59 343.29-2.77L343.29-2.77L343.29-2.77Q339.32-6.13 339.32-12.94L339.32-12.94L339.32-12.94Q339.32-19.60 343.20-23.03L343.20-23.03L343.20-23.03Q347.07-26.46 353.88-26.46L353.88-26.46ZM354.27-20.24L354.27-20.24Q349.66-20.24 349.13-15.88L349.13-15.88L358.63-15.88L358.63-15.88Q358.63-17.89 357.48-19.06L357.48-19.06L357.48-19.06Q356.33-20.24 354.27-20.24L354.27-20.24ZM388.91-26.51L388.91-26.51Q390.04-26.51 390.92-26.24L390.92-26.24L390.92-26.24Q391.80-25.97 391.80-25.92L391.80-25.92L391.80-17.74L388.67-17.74L388.67-17.74Q385.63-17.74 384.28-16.17L384.28-16.17L384.28-16.17Q382.93-14.60 382.93-11.52L382.93-11.52L382.93 0L373.18 0L373.18-25.87L381.17-25.87L381.81-21.95L381.81-21.95Q382.69-24.21 384.60-25.36L384.60-25.36L384.60-25.36Q386.51-26.51 388.91-26.51L388.91-26.51ZM430.86-33.71L430.86-33.71Q433.99-33.71 436.44-32.27L436.44-32.27L436.44-32.27Q438.89-30.82 440.26-28.30L440.26-28.30L440.26-28.30Q441.64-25.77 441.64-22.64L441.64-22.64L441.64-22.00L441.64-22.00Q441.64-18.87 440.26-16.32L440.26-16.32L440.26-16.32Q438.89-13.77 436.44-12.32L436.44-12.32L436.44-12.32Q433.99-10.88 430.86-10.88L430.86-10.88L422.77-10.88L422.77 0L411.94 0L411.94-33.71L430.86-33.71ZM422.77-25.73L422.77-18.77L427.23-18.77L427.23-18.77Q428.95-18.77 429.80-19.65L429.80-19.65L429.80-19.65Q430.66-20.53 430.66-22.05L430.66-22.05L430.66-22.44L430.66-22.44Q430.66-24.01 429.80-24.87L429.80-24.87L429.80-24.87Q428.95-25.73 427.23-25.73L427.23-25.73L422.77-25.73ZM456.73 0L446.98 0L446.98-35.52L456.73-35.52L456.73 0ZM489.71 0L481.72 0L481.08-3.92L481.08-3.92Q479.56-1.81 477.09-0.61L477.09-0.61L477.09-0.61Q474.61 0.59 471.87 0.59L471.87 0.59L471.87 0.59Q467.36 0.59 465.11-1.91L465.11-1.91L465.11-1.91Q462.85-4.41 462.85-9.11L462.85-9.11L462.85-25.87L472.61-25.87L472.61-10.29L472.61-10.29Q472.61-8.62 473.46-7.62L473.46-7.62L473.46-7.62Q474.32-6.62 475.89-6.62L475.89-6.62L475.89-6.62Q477.70-6.62 478.83-7.79L478.83-7.79L478.83-7.79Q479.95-8.97 479.95-10.68L479.95-10.68L479.95-25.87L489.71-25.87L489.71 0ZM507.93-26.46L507.93-26.46Q513.13-26.46 516.73-24.43L516.73-24.43L516.73-24.43Q520.33-22.39 520.33-18.13L520.33-18.13L511.27-18.13L511.27-18.13Q511.27-19.55 509.99-20.14L509.99-20.14L509.99-20.14Q509.11-20.63 507.79-20.63L507.79-20.63L507.79-20.63Q504.26-20.63 504.26-18.96L504.26-18.96L504.26-18.96Q504.26-18.03 505.48-17.64L505.48-17.64L505.48-17.64Q506.71-17.25 509.50-16.81L509.50-16.81L509.50-16.81Q512.93-16.32 515.24-15.66L515.24-15.66L515.24-15.66Q517.54-14.99 519.25-13.30L519.25-13.30L519.25-13.30Q520.97-11.61 520.97-8.58L520.97-8.58L520.97-8.58Q520.97-3.63 517.27-1.52L517.27-1.52L517.27-1.52Q513.57 0.59 507.59 0.59L507.59 0.59L507.59 0.59Q504.16 0.59 501.12-0.37L501.12-0.37L501.12-0.37Q498.08-1.32 496.17-3.33L496.17-3.33L496.17-3.33Q494.26-5.34 494.26-8.43L494.26-8.43L503.33-8.43L503.33-8.23L503.33-8.23Q503.38-6.57 504.72-5.90L504.72-5.90L504.72-5.90Q506.07-5.24 507.59-5.24L507.59-5.24L507.59-5.24Q511.66-5.24 511.66-7.15L511.66-7.15L511.66-7.15Q511.66-8.13 510.38-8.58L510.38-8.58L510.38-8.58Q509.11-9.02 506.22-9.51L506.22-9.51L506.22-9.51Q502.74-10.09 500.51-10.78L500.51-10.78L500.51-10.78Q498.28-11.47 496.62-13.11L496.62-13.11L496.62-13.11Q494.95-14.75 494.95-17.69L494.95-17.69L494.95-17.69Q494.95-22.44 498.55-24.45L498.55-24.45L498.55-24.45Q502.15-26.46 507.93-26.46L507.93-26.46Z" fill="url(#editing-gradient-gradient)"></path></g></g><style>text {
  font-size: 64px;
  font-family: Arial Black;
  dominant-baseline: central;
  text-anchor: middle;
}</style></svg>